<svg class="svg-icon" style="width: 1em; height: 1em;vertical-align: middle;fill: currentColor;overflow: hidden;" viewBox="0 0 1024 1024" version="1.1" xmlns="http://www.w3.org/2000/svg"><path d="M894 255.3c11.9 0 23.2 4.7 31.8 13.2 8.5 8.5 13.2 19.8 13.2 31.8v445.8c0 11.9-4.7 23.2-13.2 31.8-8.5 8.5-19.8 13.2-31.8 13.2H128.6c-11.9 0-23.2-4.7-31.8-13.2-8.5-8.5-13.2-19.8-13.2-31.8V300.3c0-11.9 4.7-23.2 13.2-31.8 8.5-8.5 19.8-13.2 31.8-13.2H894m0-20H128.6c-35.8 0-65 29.3-65 65v445.8c0 35.8 29.2 65 65 65H894c35.8 0 65-29.3 65-65V300.3c0-35.7-29.3-65-65-65z" fill="#3983FD" /><path d="M248.7 346v73.3h-73.3V346h73.3m0-10h-73.3c-5.5 0-10 4.5-10 10v73.3c0 5.5 4.5 10 10 10h73.3c5.5 0 10-4.5 10-10V346c0-5.5-4.5-10-10-10zM846.3 346v73.3H773V346h73.3m0-10H773c-5.5 0-10 4.5-10 10v73.3c0 5.5 4.5 10 10 10h73.3c5.5 0 10-4.5 10-10V346c0-5.5-4.5-10-10-10zM696.9 346v73.3h-73.3V346h73.3m0-10h-73.3c-5.5 0-10 4.5-10 10v73.3c0 5.5 4.5 10 10 10h73.3c5.5 0 10-4.5 10-10V346c0-5.5-4.5-10-10-10zM547.5 346v73.3h-73.3V346h73.3m0-10h-73.3c-5.5 0-10 4.5-10 10v73.3c0 5.5 4.5 10 10 10h73.3c5.5 0 10-4.5 10-10V346c0-5.5-4.5-10-10-10zM398.1 346v73.3h-73.3V346h73.3m0-10h-73.3c-5.5 0-10 4.5-10 10v73.3c0 5.5 4.5 10 10 10h73.3c5.5 0 10-4.5 10-10V346c0-5.5-4.5-10-10-10zM248.7 485v73.3h-73.3V485h73.3m0-10h-73.3c-5.5 0-10 4.5-10 10v73.3c0 5.5 4.5 10 10 10h73.3c5.5 0 10-4.5 10-10V485c0-5.6-4.5-10-10-10zM248.7 623.9v73.3h-73.3v-73.3h73.3m0-10h-73.3c-5.5 0-10 4.5-10 10v73.3c0 5.5 4.5 10 10 10h73.3c5.5 0 10-4.5 10-10v-73.3c0-5.5-4.5-10-10-10zM846.3 485v73.3H773V485h73.3m0-10H773c-5.5 0-10 4.5-10 10v73.3c0 5.5 4.5 10 10 10h73.3c5.5 0 10-4.5 10-10V485c0-5.6-4.5-10-10-10zM846.3 626.3v73.3H773v-73.3h73.3m0-10H773c-5.5 0-10 4.5-10 10v73.3c0 5.5 4.5 10 10 10h73.3c5.5 0 10-4.5 10-10v-73.3c0-5.5-4.5-10-10-10zM696.9 485v73.3h-73.3V485h73.3m0-10h-73.3c-5.5 0-10 4.5-10 10v73.3c0 5.5 4.5 10 10 10h73.3c5.5 0 10-4.5 10-10V485c0-5.6-4.5-10-10-10zM547.5 485v73.3h-73.3V485h73.3m0-10h-73.3c-5.5 0-10 4.5-10 10v73.3c0 5.5 4.5 10 10 10h73.3c5.5 0 10-4.5 10-10V485c0-5.6-4.5-10-10-10zM398.1 485v73.3h-73.3V485h73.3m0-10h-73.3c-5.5 0-10 4.5-10 10v73.3c0 5.5 4.5 10 10 10h73.3c5.5 0 10-4.5 10-10V485c0-5.6-4.5-10-10-10z" fill="#3983FD" /><path d="M324.8 704.6c-2.8 0-5-2.2-5-5v-73.3c0-2.8 2.2-5 5-5h372.1c2.8 0 5 2.2 5 5v73.3c0 2.8-2.2 5-5 5H324.8z" fill="#83FCE5" /><path d="M696.9 626.3v73.3H324.8v-73.3h372.1m0-10H324.8c-5.5 0-10 4.5-10 10v73.3c0 5.5 4.5 10 10 10h372.1c5.5 0 10-4.5 10-10v-73.3c0-5.5-4.5-10-10-10z" fill="#3983FD" /></svg>